<svg xmlns:mydata="http://www.w3.org/2000/svg" mydata:contrastcolor="774a8e" mydata:template="Contrast" mydata:presentation="2.5" mydata:layouttype="undefined" mydata:specialfontid="undefined" mydata:id1="277" mydata:id2="276" mydata:companyname="Ashare" mydata:companytagline="" version="1.1" xmlns="http://www.w3.org/2000/svg" xmlns:xlink="http://www.w3.org/1999/xlink" viewBox="0 0 550 470">
    <defs style="animation-play-state: running;">
        <filter id="electric-filter" x="-50%" y="-50%" width="200%" height="200%" style="animation-play-state: running;">
            <feFlood flood-color="#ffffff" result="flood-white" style="animation-play-state: running;"></feFlood>
            <feFlood flood-color="#d10754" result="flood-accent" style="animation-play-state: running;"></feFlood>
            <feComposite operator="out" in="flood-accent" in2="SourceAlpha" result="comp" style="animation-play-state: running;"></feComposite>
            <feGaussianBlur in="comp" result="comp" stdDeviation="0.4" style="animation-play-state: running;"></feGaussianBlur>
            <feComposite operator="in" in="comp" in2="SourceAlpha" result="comp" style="animation-play-state: running;"></feComposite>
            <feComposite operator="in" in="flood-white" in2="SourceAlpha" result="comp2" style="animation-play-state: running;"></feComposite>
            <feGaussianBlur in="comp2" result="comp2" stdDeviation="0.4" style="animation-play-state: running;"></feGaussianBlur>
            <feBlend in="comp" in2="comp2" result="output" mode="screen" style="animation-play-state: running;"></feBlend>
        </filter>
        <filter id="electric-electric" x="-50%" y="-50%" width="200%" height="200%" style="animation-play-state: running;">
            <feTurbulence baseFrequency="0.08" type="fractalNoise" numOctaves="1" seed="1" result="noise" style="animation-play-state: running;"></feTurbulence>
            <feColorMatrix in="noise" result="noise" type="hueRotate" values="90" style="animation-play-state: running;">
                <animate attributeType="XML" attributeName="values" values="0;180;360" dur="3s" repeatCount="indefinite" style="animation-play-state: running;"></animate>
            </feColorMatrix>
            <feDisplacementMap in="SourceGraphic" xChannelSelector="R" in2="noise" scale="13" result="lines" style="animation-play-state: running;"></feDisplacementMap>
            <feGaussianBlur in="lines" result="output" stdDeviation="10" style="animation-play-state: running;"></feGaussianBlur>
            <feBlend in="lines" in2="output" result="output" mode="screen" style="animation-play-state: running;"></feBlend>
        </filter>
    </defs>
    <defs style="animation-play-state: running;">
        <linearGradient x1="146" y1="235" x2="404" y2="235" gradientUnits="userSpaceOnUse" id="color-14046478143" style="animation-play-state: running;">
            <stop offset="0" stop-color="#7b4397" style="animation-play-state: running;"></stop>
            <stop offset="1" stop-color="#dc2430" style="animation-play-state: running;"></stop>
        </linearGradient>
    </defs>
    <g fill="url(#color-14046478143)" fill-rule="none" stroke="none" stroke-width="1" stroke-linecap="butt" stroke-linejoin="miter" stroke-miterlimit="10" stroke-dasharray="" stroke-dashoffset="0" font-family="none" font-weight="none" font-size="none" text-anchor="none" style="mix-blend-mode: normal; animation-play-state: running;">
        <g data-paper-data="{&quot;isGlobalGroup&quot;:true,&quot;bounds&quot;:{&quot;x&quot;:146,&quot;y&quot;:106,&quot;width&quot;:258,&quot;height&quot;:258}}" style="animation-play-state: running;">
            <g data-paper-data="{&quot;fillRule&quot;:&quot;nonzero&quot;,&quot;fillRuleOriginal&quot;:&quot;evenodd&quot;,&quot;isIcon&quot;:true,&quot;iconStyle&quot;:&quot;standalone&quot;,&quot;selectedEffects&quot;:{&quot;container&quot;:&quot;circle_simple_filled&quot;,&quot;transformation&quot;:&quot;&quot;,&quot;pattern&quot;:&quot;&quot;},&quot;bounds&quot;:{&quot;x&quot;:203.02146804388317,&quot;y&quot;:163.02146804388317,&quot;width&quot;:143.95725332967223,&quot;height&quot;:143.95725332967228},&quot;widthRatioIconToContainer&quot;:0.6771979798685066,&quot;heightRatioIconToContainer&quot;:0.5915523154581329,&quot;relativeBoundsIconToContainer&quot;:{&quot;top&quot;:-0.0017509971090769205,&quot;left&quot;:-1.8671079801891396e-8},&quot;iconType&quot;:&quot;icon&quot;,&quot;rawIconId&quot;:&quot;3584569&quot;,&quot;isDetailed&quot;:false,&quot;blockLetter&quot;:&quot;O&quot;,&quot;suitableAsStandaloneIcon&quot;:true}" fill-rule="nonzero" style="animation-play-state: running;">
                <path d="M203.02147,235.00009c0,-39.75269 32.22593,-71.97863 71.97863,-71.97863c39.75269,0 71.97863,32.22593 71.97863,71.97863c0,39.75269 -32.22593,71.97863 -71.97863,71.97863c-39.75269,0 -71.97863,-32.22593 -71.97863,-71.97863zM323.34291,203.92476v-11.75585l-42.7796,37.04505l-21.90672,-22.53729l-32.40028,28.04224v11.75585l32.40028,-28.04224l21.90672,22.53729zM303.21482,231.622v45.70515h20.52905v-63.42518zM272.47666,277.32715v-34.35026l-13.82006,-14.27929l-6.70898,5.8488v42.78075zM277.46641,277.32715h20.52905v-41.17462l-17.43215,15.08236l-3.09689,-3.15401zM226.25632,277.32715h20.53019v-38.36445l-20.53019,17.72002z" data-paper-data="{&quot;isPathIcon&quot;:true}" style="animation-play-state: running;"></path>
            </g>
            <g data-paper-data="{&quot;isContainerElementsWrapper&quot;:true}" fill-rule="evenodd" style="animation-play-state: running;">
                <path d="M183.78329,143.78329c-11.90078,11.90074 -21.11518,25.56812 -27.6432,41.00215c-6.76006,15.98266 -10.14008,32.72088 -10.14008,50.21466c0,17.49333 3.38003,34.23152 10.14008,50.21456c6.52808,15.43436 15.74248,29.1021 27.6432,41.00319c11.90077,11.89983 25.56815,21.11373 41.00215,27.64169c15.98285,6.76031 32.72107,10.14046 50.21466,10.14046c17.49396,0 34.23215,-3.38015 50.21456,-10.14046c15.43436,-6.52796 29.10178,-15.74185 41.00225,-27.64169c11.90047,-11.9011 21.11468,-25.56883 27.64263,-41.00319c6.76031,-15.98241 10.14046,-32.7206 10.14046,-50.21456c0,-17.49403 -3.38015,-34.23225 -10.14046,-50.21466c-6.52796,-15.43395 -15.74185,-29.10133 -27.64169,-41.00215c-11.9011,-11.90059 -25.56883,-21.11499 -41.00319,-27.6432c-15.98304,-6.76006 -32.72123,-10.14008 -50.21456,-10.14008c-17.49377,0 -34.23199,3.38003 -50.21466,10.14008c-15.43417,6.52815 -29.10156,15.74255 -41.00215,27.6432zM148.45239,235.00009c0,-17.16236 3.3155,-33.5821 9.9465,-49.25924c6.40389,-15.14046 15.44339,-28.54828 27.11852,-40.22346c11.67524,-11.67525 25.08305,-20.71475 40.22346,-27.11852c15.67713,-6.631 32.09688,-9.9465 49.25924,-9.9465c17.16185,0 33.58182,3.3155 49.2599,9.9465c15.14014,6.40376 28.54773,15.44327 40.22279,27.11852c11.67506,11.67537 20.71469,25.08319 27.11889,40.22346c6.63024,15.67751 9.94536,32.09726 9.94536,49.25924c0,17.16248 -3.31512,33.58245 -9.94536,49.2599c-6.4042,15.14014 -15.44384,28.54773 -27.11889,40.22279c-11.67506,11.67506 -25.08266,20.71469 -40.22279,27.11889c-15.67745,6.63024 -32.09742,9.94536 -49.2599,9.94536c-17.16248,0 -33.58223,-3.31512 -49.25924,-9.94536c-15.14069,-6.4042 -28.5485,-15.44384 -40.22346,-27.11889c-11.67506,-11.67506 -20.71456,-25.08266 -27.11852,-40.22279c-6.631,-15.67808 -9.9465,-32.09805 -9.9465,-49.2599z" data-paper-data="{&quot;isAdditionalOutlinePath&quot;:true}" style="animation-play-state: running;"></path>
                <path d="M152.37645,235.00009c0,-67.72318 54.90046,-122.62364 122.62364,-122.62364c67.72336,0 122.62411,54.90046 122.62411,122.62364c0,67.72336 -54.90075,122.62411 -122.62411,122.62411c-67.72318,0 -122.62364,-54.90075 -122.62364,-122.62411zM265.02319,138.42381l-4.4783,0.56323l1.35168,10.74783l-3.94092,0.49565l-3.1539,-25.07843l3.94092,-0.49561l1.35168,10.74792l4.4783,-0.56323l-1.35168,-10.74792l4.01252,-0.50461l3.1539,25.0784l-4.01252,0.5047zM293.39357,125.02414l-5.75744,-0.80521l-7.50633,24.47216l3.61181,0.50518l1.31465,-4.44657l4.82768,0.67518l0.04423,4.63665l3.96943,0.55517zM289.69804,129.02833l0.12464,12.92433l-3.79053,-0.53018zM315.40757,155.14339c-0.48301,1.12855 -0.80597,1.97257 -0.80976,2.99195l-3.71826,-1.59212c0.05683,-0.68276 0.0805,-1.10474 0.89121,-2.99672l1.56364,-3.65119c0.92436,-2.15756 0.5351,-3.26688 -1.12514,-3.97767l-1.26057,-0.54012l-4.05164,9.45986l-3.65102,-1.56369l9.9501,-23.23481l5.51015,2.35967c3.78456,1.62056 4.65683,4.07636 3.1216,7.66118l-0.78135,1.82561c-1.0238,2.38988 -2.45485,3.62299 -4.40869,3.68985c1.49829,1.54527 1.34297,3.56038 0.30496,5.9834zM229.97301,139.44762c2.71644,6.69136 10.27637,4.67444 12.2322,9.49218c0.67916,1.67287 0.18762,2.5739 -0.98336,3.04928c-1.17098,0.47538 -2.1515,0.17197 -2.83065,-1.50086l-0.67916,-1.67287l-3.4795,1.4126l0.58407,1.43863c1.52121,3.74715 4.26407,5.12777 7.8774,3.66087c3.61333,-1.4669 4.61762,-4.36873 3.09641,-8.1159c-2.71644,-6.69127 -10.27637,-4.67444 -12.2322,-9.49218c-0.67916,-1.67284 -0.26812,-2.58015 0.90286,-3.05559c1.17098,-0.47534 2.09818,-0.11128 2.77733,1.56156l0.39389,0.9702l3.4795,-1.41258l-0.29881,-0.73608c-1.52121,-3.74706 -4.23064,-5.14126 -7.81053,-3.68796c-3.5798,1.45331 -4.55066,4.34154 -3.02945,8.08869zM318.02058,138.86118c0.71032,-1.65968 0.45934,-2.63158 -0.83533,-3.186l-1.75874,-0.75341l-3.05625,7.1364l1.42726,0.61134c1.36002,0.58274 2.44633,0.34067 3.24188,-1.51809zM339.75529,148.62565l5.43249,4.18997l2.20482,-2.85925l-8.57777,-6.61566l-15.43657,20.01469l8.57777,6.6157l2.20577,-2.85927l-5.43249,-4.18992l4.52045,-5.86145l4.31777,3.32988l2.20482,-2.85924l-4.31777,-3.32989zM210.66295,143.93757l-4.65764,3.47903l11.88581,22.67062l2.92186,-2.18246l-2.19459,-4.08458l3.90541,-2.91714l3.29397,3.26346l3.21119,-2.39854zM210.85445,149.38313l9.18267,9.09575l-3.06657,2.29049zM199.2129,235.00009c0,-41.85614 33.93105,-75.78719 75.78719,-75.78719c41.85652,0 75.78686,33.93105 75.78686,75.78719c0,41.85652 -33.93035,75.78686 -75.78686,75.78686c-41.85614,0 -75.78719,-33.93035 -75.78719,-75.78686zM328.90546,307.30736l5.43249,-4.18991l-2.20482,-2.85926l-8.57777,6.6154l15.43657,20.01479l8.57777,-6.6154l-2.20577,-2.85926l-5.43249,4.18991l-4.52045,-5.86152l4.31682,-3.32996l-2.20482,-2.85926l-4.31777,3.32996zM220.95835,302.56435l4.65759,3.4796l-11.88575,22.67043l-3.21119,-2.39897l2.19459,-4.08479l-3.90541,-2.91703l-3.29395,3.26366l-2.92186,-2.18209zM214.33244,319.15826l6.11619,-11.38588l-9.18267,9.09583zM323.0553,332.71487c0.48301,1.12798 0.87227,1.94342 1.60721,2.64995l-3.71826,1.593c-0.4546,-0.51237 -0.74346,-0.82112 -1.55417,-2.71246l-1.56364,-3.65197c-0.92436,-2.15746 -1.99551,-2.64143 -3.65481,-1.93016l-1.26152,0.53984l4.05164,9.46045l-3.65197,1.56364l-9.9501,-23.23489l5.51015,-2.36014c3.78361,-1.62047 6.16364,-0.55783 7.69887,3.02689l0.78135,1.82598c1.0238,2.3895 0.92815,4.27705 -0.37126,5.73651c2.15273,-0.01799 3.50328,1.48503 4.54128,3.90768zM234.80837,318.6421c-1.4696,3.61977 -0.14632,6.40042 1.06841,8.95282c1.03081,2.16599 1.98348,4.16813 1.08565,6.37958c-0.67906,1.67256 -1.65958,1.97657 -2.83056,1.50113c-1.17098,-0.47544 -1.66261,-1.37612 -0.98346,-3.04962l0.67916,-1.67256l-3.4795,-1.41305l-0.58407,1.43863c-1.52121,3.74762 -0.51692,6.6495 3.09641,8.11654c3.61333,1.46704 6.35619,0.08618 7.8774,-3.66144c1.4695,-3.61977 0.14632,-6.40042 -1.0685,-8.95282c-1.03071,-2.16599 -1.98348,-4.16813 -1.08565,-6.37958c0.67916,-1.67256 1.60635,-2.03718 2.77733,-1.56175c1.17098,0.47544 1.58201,1.38275 0.90286,3.05625l-0.39389,0.96982l3.4795,1.41305l0.29881,-0.73683c1.52131,-3.74668 0.55045,-6.63529 -3.02945,-8.08812c-3.57989,-1.45378 -6.28923,-0.05967 -7.81044,3.68796zM313.07395,319.58824c-0.71126,-1.66024 -1.58827,-2.14799 -2.88293,-1.59395l-1.75874,0.75293l3.05625,7.13725l1.42726,-0.61182c1.36096,-0.58246 1.9349,-1.53523 1.1384,-3.39436zM264.53658,335.44532l-4.4783,-0.56257l-1.35168,10.74755l-3.94092,-0.49533l3.15399,-25.07887l3.94092,0.49533l-1.35168,10.74849l4.47821,0.56352l1.35168,-10.74849l4.01262,0.5048l-3.15399,25.07887l-4.01252,-0.5048zM289.93244,320.22942l-5.75744,0.80597l-0.50404,25.59219l3.61181,-0.5048l0.04423,-4.63694l4.82768,-0.67527l1.31465,4.44657l3.96915,-0.55499zM287.47731,325.09461l3.66589,12.39358l-3.79062,0.53037z"
                data-paper-data="{&quot;isBaseLogoContainer&quot;:true}" style="animation-play-state: running;"></path>
            </g>
        </g>
    </g>
    <g fill-rule="none" font-family="none" font-weight="none" font-size="none" text-anchor="none" style="mix-blend-mode: normal; animation-play-state: running;" filter="url(#electric-electric)" fill="none" stroke="#d10754" stroke-width="2.5">
        <g data-paper-data="{&quot;isGlobalGroup&quot;:true,&quot;bounds&quot;:{&quot;x&quot;:146,&quot;y&quot;:106,&quot;width&quot;:258,&quot;height&quot;:258}}" style="animation-play-state: running;">
            <g data-paper-data="{&quot;fillRule&quot;:&quot;nonzero&quot;,&quot;fillRuleOriginal&quot;:&quot;evenodd&quot;,&quot;isIcon&quot;:true,&quot;iconStyle&quot;:&quot;standalone&quot;,&quot;selectedEffects&quot;:{&quot;container&quot;:&quot;circle_simple_filled&quot;,&quot;transformation&quot;:&quot;&quot;,&quot;pattern&quot;:&quot;&quot;},&quot;bounds&quot;:{&quot;x&quot;:203.02146804388317,&quot;y&quot;:163.02146804388317,&quot;width&quot;:143.95725332967223,&quot;height&quot;:143.95725332967228},&quot;widthRatioIconToContainer&quot;:0.6771979798685066,&quot;heightRatioIconToContainer&quot;:0.5915523154581329,&quot;relativeBoundsIconToContainer&quot;:{&quot;top&quot;:-0.0017509971090769205,&quot;left&quot;:-1.8671079801891396e-8},&quot;iconType&quot;:&quot;icon&quot;,&quot;rawIconId&quot;:&quot;3584569&quot;,&quot;isDetailed&quot;:false,&quot;blockLetter&quot;:&quot;O&quot;,&quot;suitableAsStandaloneIcon&quot;:true}" fill-rule="nonzero" style="animation-play-state: running;">
                <path d="M203.02147,235.00009c0,-39.75269 32.22593,-71.97863 71.97863,-71.97863c39.75269,0 71.97863,32.22593 71.97863,71.97863c0,39.75269 -32.22593,71.97863 -71.97863,71.97863c-39.75269,0 -71.97863,-32.22593 -71.97863,-71.97863zM323.34291,203.92476v-11.75585l-42.7796,37.04505l-21.90672,-22.53729l-32.40028,28.04224v11.75585l32.40028,-28.04224l21.90672,22.53729zM303.21482,231.622v45.70515h20.52905v-63.42518zM272.47666,277.32715v-34.35026l-13.82006,-14.27929l-6.70898,5.8488v42.78075zM277.46641,277.32715h20.52905v-41.17462l-17.43215,15.08236l-3.09689,-3.15401zM226.25632,277.32715h20.53019v-38.36445l-20.53019,17.72002z" data-paper-data="{&quot;isPathIcon&quot;:true}" style="animation-play-state: running;"></path>
            </g>
            <g data-paper-data="{&quot;isContainerElementsWrapper&quot;:true}" fill-rule="evenodd" style="animation-play-state: running;">
                <path d="M183.78329,143.78329c-11.90078,11.90074 -21.11518,25.56812 -27.6432,41.00215c-6.76006,15.98266 -10.14008,32.72088 -10.14008,50.21466c0,17.49333 3.38003,34.23152 10.14008,50.21456c6.52808,15.43436 15.74248,29.1021 27.6432,41.00319c11.90077,11.89983 25.56815,21.11373 41.00215,27.64169c15.98285,6.76031 32.72107,10.14046 50.21466,10.14046c17.49396,0 34.23215,-3.38015 50.21456,-10.14046c15.43436,-6.52796 29.10178,-15.74185 41.00225,-27.64169c11.90047,-11.9011 21.11468,-25.56883 27.64263,-41.00319c6.76031,-15.98241 10.14046,-32.7206 10.14046,-50.21456c0,-17.49403 -3.38015,-34.23225 -10.14046,-50.21466c-6.52796,-15.43395 -15.74185,-29.10133 -27.64169,-41.00215c-11.9011,-11.90059 -25.56883,-21.11499 -41.00319,-27.6432c-15.98304,-6.76006 -32.72123,-10.14008 -50.21456,-10.14008c-17.49377,0 -34.23199,3.38003 -50.21466,10.14008c-15.43417,6.52815 -29.10156,15.74255 -41.00215,27.6432zM148.45239,235.00009c0,-17.16236 3.3155,-33.5821 9.9465,-49.25924c6.40389,-15.14046 15.44339,-28.54828 27.11852,-40.22346c11.67524,-11.67525 25.08305,-20.71475 40.22346,-27.11852c15.67713,-6.631 32.09688,-9.9465 49.25924,-9.9465c17.16185,0 33.58182,3.3155 49.2599,9.9465c15.14014,6.40376 28.54773,15.44327 40.22279,27.11852c11.67506,11.67537 20.71469,25.08319 27.11889,40.22346c6.63024,15.67751 9.94536,32.09726 9.94536,49.25924c0,17.16248 -3.31512,33.58245 -9.94536,49.2599c-6.4042,15.14014 -15.44384,28.54773 -27.11889,40.22279c-11.67506,11.67506 -25.08266,20.71469 -40.22279,27.11889c-15.67745,6.63024 -32.09742,9.94536 -49.2599,9.94536c-17.16248,0 -33.58223,-3.31512 -49.25924,-9.94536c-15.14069,-6.4042 -28.5485,-15.44384 -40.22346,-27.11889c-11.67506,-11.67506 -20.71456,-25.08266 -27.11852,-40.22279c-6.631,-15.67808 -9.9465,-32.09805 -9.9465,-49.2599z" data-paper-data="{&quot;isAdditionalOutlinePath&quot;:true}" style="animation-play-state: running;"></path>
                <path d="M152.37645,235.00009c0,-67.72318 54.90046,-122.62364 122.62364,-122.62364c67.72336,0 122.62411,54.90046 122.62411,122.62364c0,67.72336 -54.90075,122.62411 -122.62411,122.62411c-67.72318,0 -122.62364,-54.90075 -122.62364,-122.62411zM265.02319,138.42381l-4.4783,0.56323l1.35168,10.74783l-3.94092,0.49565l-3.1539,-25.07843l3.94092,-0.49561l1.35168,10.74792l4.4783,-0.56323l-1.35168,-10.74792l4.01252,-0.50461l3.1539,25.0784l-4.01252,0.5047zM293.39357,125.02414l-5.75744,-0.80521l-7.50633,24.47216l3.61181,0.50518l1.31465,-4.44657l4.82768,0.67518l0.04423,4.63665l3.96943,0.55517zM289.69804,129.02833l0.12464,12.92433l-3.79053,-0.53018zM315.40757,155.14339c-0.48301,1.12855 -0.80597,1.97257 -0.80976,2.99195l-3.71826,-1.59212c0.05683,-0.68276 0.0805,-1.10474 0.89121,-2.99672l1.56364,-3.65119c0.92436,-2.15756 0.5351,-3.26688 -1.12514,-3.97767l-1.26057,-0.54012l-4.05164,9.45986l-3.65102,-1.56369l9.9501,-23.23481l5.51015,2.35967c3.78456,1.62056 4.65683,4.07636 3.1216,7.66118l-0.78135,1.82561c-1.0238,2.38988 -2.45485,3.62299 -4.40869,3.68985c1.49829,1.54527 1.34297,3.56038 0.30496,5.9834zM229.97301,139.44762c2.71644,6.69136 10.27637,4.67444 12.2322,9.49218c0.67916,1.67287 0.18762,2.5739 -0.98336,3.04928c-1.17098,0.47538 -2.1515,0.17197 -2.83065,-1.50086l-0.67916,-1.67287l-3.4795,1.4126l0.58407,1.43863c1.52121,3.74715 4.26407,5.12777 7.8774,3.66087c3.61333,-1.4669 4.61762,-4.36873 3.09641,-8.1159c-2.71644,-6.69127 -10.27637,-4.67444 -12.2322,-9.49218c-0.67916,-1.67284 -0.26812,-2.58015 0.90286,-3.05559c1.17098,-0.47534 2.09818,-0.11128 2.77733,1.56156l0.39389,0.9702l3.4795,-1.41258l-0.29881,-0.73608c-1.52121,-3.74706 -4.23064,-5.14126 -7.81053,-3.68796c-3.5798,1.45331 -4.55066,4.34154 -3.02945,8.08869zM318.02058,138.86118c0.71032,-1.65968 0.45934,-2.63158 -0.83533,-3.186l-1.75874,-0.75341l-3.05625,7.1364l1.42726,0.61134c1.36002,0.58274 2.44633,0.34067 3.24188,-1.51809zM339.75529,148.62565l5.43249,4.18997l2.20482,-2.85925l-8.57777,-6.61566l-15.43657,20.01469l8.57777,6.6157l2.20577,-2.85927l-5.43249,-4.18992l4.52045,-5.86145l4.31777,3.32988l2.20482,-2.85924l-4.31777,-3.32989zM210.66295,143.93757l-4.65764,3.47903l11.88581,22.67062l2.92186,-2.18246l-2.19459,-4.08458l3.90541,-2.91714l3.29397,3.26346l3.21119,-2.39854zM210.85445,149.38313l9.18267,9.09575l-3.06657,2.29049zM199.2129,235.00009c0,-41.85614 33.93105,-75.78719 75.78719,-75.78719c41.85652,0 75.78686,33.93105 75.78686,75.78719c0,41.85652 -33.93035,75.78686 -75.78686,75.78686c-41.85614,0 -75.78719,-33.93035 -75.78719,-75.78686zM328.90546,307.30736l5.43249,-4.18991l-2.20482,-2.85926l-8.57777,6.6154l15.43657,20.01479l8.57777,-6.6154l-2.20577,-2.85926l-5.43249,4.18991l-4.52045,-5.86152l4.31682,-3.32996l-2.20482,-2.85926l-4.31777,3.32996zM220.95835,302.56435l4.65759,3.4796l-11.88575,22.67043l-3.21119,-2.39897l2.19459,-4.08479l-3.90541,-2.91703l-3.29395,3.26366l-2.92186,-2.18209zM214.33244,319.15826l6.11619,-11.38588l-9.18267,9.09583zM323.0553,332.71487c0.48301,1.12798 0.87227,1.94342 1.60721,2.64995l-3.71826,1.593c-0.4546,-0.51237 -0.74346,-0.82112 -1.55417,-2.71246l-1.56364,-3.65197c-0.92436,-2.15746 -1.99551,-2.64143 -3.65481,-1.93016l-1.26152,0.53984l4.05164,9.46045l-3.65197,1.56364l-9.9501,-23.23489l5.51015,-2.36014c3.78361,-1.62047 6.16364,-0.55783 7.69887,3.02689l0.78135,1.82598c1.0238,2.3895 0.92815,4.27705 -0.37126,5.73651c2.15273,-0.01799 3.50328,1.48503 4.54128,3.90768zM234.80837,318.6421c-1.4696,3.61977 -0.14632,6.40042 1.06841,8.95282c1.03081,2.16599 1.98348,4.16813 1.08565,6.37958c-0.67906,1.67256 -1.65958,1.97657 -2.83056,1.50113c-1.17098,-0.47544 -1.66261,-1.37612 -0.98346,-3.04962l0.67916,-1.67256l-3.4795,-1.41305l-0.58407,1.43863c-1.52121,3.74762 -0.51692,6.6495 3.09641,8.11654c3.61333,1.46704 6.35619,0.08618 7.8774,-3.66144c1.4695,-3.61977 0.14632,-6.40042 -1.0685,-8.95282c-1.03071,-2.16599 -1.98348,-4.16813 -1.08565,-6.37958c0.67916,-1.67256 1.60635,-2.03718 2.77733,-1.56175c1.17098,0.47544 1.58201,1.38275 0.90286,3.05625l-0.39389,0.96982l3.4795,1.41305l0.29881,-0.73683c1.52131,-3.74668 0.55045,-6.63529 -3.02945,-8.08812c-3.57989,-1.45378 -6.28923,-0.05967 -7.81044,3.68796zM313.07395,319.58824c-0.71126,-1.66024 -1.58827,-2.14799 -2.88293,-1.59395l-1.75874,0.75293l3.05625,7.13725l1.42726,-0.61182c1.36096,-0.58246 1.9349,-1.53523 1.1384,-3.39436zM264.53658,335.44532l-4.4783,-0.56257l-1.35168,10.74755l-3.94092,-0.49533l3.15399,-25.07887l3.94092,0.49533l-1.35168,10.74849l4.47821,0.56352l1.35168,-10.74849l4.01262,0.5048l-3.15399,25.07887l-4.01252,-0.5048zM289.93244,320.22942l-5.75744,0.80597l-0.50404,25.59219l3.61181,-0.5048l0.04423,-4.63694l4.82768,-0.67527l1.31465,4.44657l3.96915,-0.55499zM287.47731,325.09461l3.66589,12.39358l-3.79062,0.53037z"
                data-paper-data="{&quot;isBaseLogoContainer&quot;:true}" style="animation-play-state: running;"></path>
            </g>
        </g>
    </g>
    <g fill-rule="none" font-family="none" font-weight="none" font-size="none" text-anchor="none" style="mix-blend-mode: normal; animation-play-state: running;" filter="url(#electric-electric)" fill="none" stroke="#ffffff" opacity="0.5">
        <g data-paper-data="{&quot;isGlobalGroup&quot;:true,&quot;bounds&quot;:{&quot;x&quot;:146,&quot;y&quot;:106,&quot;width&quot;:258,&quot;height&quot;:258}}" style="animation-play-state: running;">
            <g data-paper-data="{&quot;fillRule&quot;:&quot;nonzero&quot;,&quot;fillRuleOriginal&quot;:&quot;evenodd&quot;,&quot;isIcon&quot;:true,&quot;iconStyle&quot;:&quot;standalone&quot;,&quot;selectedEffects&quot;:{&quot;container&quot;:&quot;circle_simple_filled&quot;,&quot;transformation&quot;:&quot;&quot;,&quot;pattern&quot;:&quot;&quot;},&quot;bounds&quot;:{&quot;x&quot;:203.02146804388317,&quot;y&quot;:163.02146804388317,&quot;width&quot;:143.95725332967223,&quot;height&quot;:143.95725332967228},&quot;widthRatioIconToContainer&quot;:0.6771979798685066,&quot;heightRatioIconToContainer&quot;:0.5915523154581329,&quot;relativeBoundsIconToContainer&quot;:{&quot;top&quot;:-0.0017509971090769205,&quot;left&quot;:-1.8671079801891396e-8},&quot;iconType&quot;:&quot;icon&quot;,&quot;rawIconId&quot;:&quot;3584569&quot;,&quot;isDetailed&quot;:false,&quot;blockLetter&quot;:&quot;O&quot;,&quot;suitableAsStandaloneIcon&quot;:true}" fill-rule="nonzero" style="animation-play-state: running;">
                <path d="M203.02147,235.00009c0,-39.75269 32.22593,-71.97863 71.97863,-71.97863c39.75269,0 71.97863,32.22593 71.97863,71.97863c0,39.75269 -32.22593,71.97863 -71.97863,71.97863c-39.75269,0 -71.97863,-32.22593 -71.97863,-71.97863zM323.34291,203.92476v-11.75585l-42.7796,37.04505l-21.90672,-22.53729l-32.40028,28.04224v11.75585l32.40028,-28.04224l21.90672,22.53729zM303.21482,231.622v45.70515h20.52905v-63.42518zM272.47666,277.32715v-34.35026l-13.82006,-14.27929l-6.70898,5.8488v42.78075zM277.46641,277.32715h20.52905v-41.17462l-17.43215,15.08236l-3.09689,-3.15401zM226.25632,277.32715h20.53019v-38.36445l-20.53019,17.72002z" data-paper-data="{&quot;isPathIcon&quot;:true}" style="animation-play-state: running;"></path>
            </g>
            <g data-paper-data="{&quot;isContainerElementsWrapper&quot;:true}" fill-rule="evenodd" style="animation-play-state: running;">
                <path d="M183.78329,143.78329c-11.90078,11.90074 -21.11518,25.56812 -27.6432,41.00215c-6.76006,15.98266 -10.14008,32.72088 -10.14008,50.21466c0,17.49333 3.38003,34.23152 10.14008,50.21456c6.52808,15.43436 15.74248,29.1021 27.6432,41.00319c11.90077,11.89983 25.56815,21.11373 41.00215,27.64169c15.98285,6.76031 32.72107,10.14046 50.21466,10.14046c17.49396,0 34.23215,-3.38015 50.21456,-10.14046c15.43436,-6.52796 29.10178,-15.74185 41.00225,-27.64169c11.90047,-11.9011 21.11468,-25.56883 27.64263,-41.00319c6.76031,-15.98241 10.14046,-32.7206 10.14046,-50.21456c0,-17.49403 -3.38015,-34.23225 -10.14046,-50.21466c-6.52796,-15.43395 -15.74185,-29.10133 -27.64169,-41.00215c-11.9011,-11.90059 -25.56883,-21.11499 -41.00319,-27.6432c-15.98304,-6.76006 -32.72123,-10.14008 -50.21456,-10.14008c-17.49377,0 -34.23199,3.38003 -50.21466,10.14008c-15.43417,6.52815 -29.10156,15.74255 -41.00215,27.6432zM148.45239,235.00009c0,-17.16236 3.3155,-33.5821 9.9465,-49.25924c6.40389,-15.14046 15.44339,-28.54828 27.11852,-40.22346c11.67524,-11.67525 25.08305,-20.71475 40.22346,-27.11852c15.67713,-6.631 32.09688,-9.9465 49.25924,-9.9465c17.16185,0 33.58182,3.3155 49.2599,9.9465c15.14014,6.40376 28.54773,15.44327 40.22279,27.11852c11.67506,11.67537 20.71469,25.08319 27.11889,40.22346c6.63024,15.67751 9.94536,32.09726 9.94536,49.25924c0,17.16248 -3.31512,33.58245 -9.94536,49.2599c-6.4042,15.14014 -15.44384,28.54773 -27.11889,40.22279c-11.67506,11.67506 -25.08266,20.71469 -40.22279,27.11889c-15.67745,6.63024 -32.09742,9.94536 -49.2599,9.94536c-17.16248,0 -33.58223,-3.31512 -49.25924,-9.94536c-15.14069,-6.4042 -28.5485,-15.44384 -40.22346,-27.11889c-11.67506,-11.67506 -20.71456,-25.08266 -27.11852,-40.22279c-6.631,-15.67808 -9.9465,-32.09805 -9.9465,-49.2599z" data-paper-data="{&quot;isAdditionalOutlinePath&quot;:true}" style="animation-play-state: running;"></path>
                <path d="M152.37645,235.00009c0,-67.72318 54.90046,-122.62364 122.62364,-122.62364c67.72336,0 122.62411,54.90046 122.62411,122.62364c0,67.72336 -54.90075,122.62411 -122.62411,122.62411c-67.72318,0 -122.62364,-54.90075 -122.62364,-122.62411zM265.02319,138.42381l-4.4783,0.56323l1.35168,10.74783l-3.94092,0.49565l-3.1539,-25.07843l3.94092,-0.49561l1.35168,10.74792l4.4783,-0.56323l-1.35168,-10.74792l4.01252,-0.50461l3.1539,25.0784l-4.01252,0.5047zM293.39357,125.02414l-5.75744,-0.80521l-7.50633,24.47216l3.61181,0.50518l1.31465,-4.44657l4.82768,0.67518l0.04423,4.63665l3.96943,0.55517zM289.69804,129.02833l0.12464,12.92433l-3.79053,-0.53018zM315.40757,155.14339c-0.48301,1.12855 -0.80597,1.97257 -0.80976,2.99195l-3.71826,-1.59212c0.05683,-0.68276 0.0805,-1.10474 0.89121,-2.99672l1.56364,-3.65119c0.92436,-2.15756 0.5351,-3.26688 -1.12514,-3.97767l-1.26057,-0.54012l-4.05164,9.45986l-3.65102,-1.56369l9.9501,-23.23481l5.51015,2.35967c3.78456,1.62056 4.65683,4.07636 3.1216,7.66118l-0.78135,1.82561c-1.0238,2.38988 -2.45485,3.62299 -4.40869,3.68985c1.49829,1.54527 1.34297,3.56038 0.30496,5.9834zM229.97301,139.44762c2.71644,6.69136 10.27637,4.67444 12.2322,9.49218c0.67916,1.67287 0.18762,2.5739 -0.98336,3.04928c-1.17098,0.47538 -2.1515,0.17197 -2.83065,-1.50086l-0.67916,-1.67287l-3.4795,1.4126l0.58407,1.43863c1.52121,3.74715 4.26407,5.12777 7.8774,3.66087c3.61333,-1.4669 4.61762,-4.36873 3.09641,-8.1159c-2.71644,-6.69127 -10.27637,-4.67444 -12.2322,-9.49218c-0.67916,-1.67284 -0.26812,-2.58015 0.90286,-3.05559c1.17098,-0.47534 2.09818,-0.11128 2.77733,1.56156l0.39389,0.9702l3.4795,-1.41258l-0.29881,-0.73608c-1.52121,-3.74706 -4.23064,-5.14126 -7.81053,-3.68796c-3.5798,1.45331 -4.55066,4.34154 -3.02945,8.08869zM318.02058,138.86118c0.71032,-1.65968 0.45934,-2.63158 -0.83533,-3.186l-1.75874,-0.75341l-3.05625,7.1364l1.42726,0.61134c1.36002,0.58274 2.44633,0.34067 3.24188,-1.51809zM339.75529,148.62565l5.43249,4.18997l2.20482,-2.85925l-8.57777,-6.61566l-15.43657,20.01469l8.57777,6.6157l2.20577,-2.85927l-5.43249,-4.18992l4.52045,-5.86145l4.31777,3.32988l2.20482,-2.85924l-4.31777,-3.32989zM210.66295,143.93757l-4.65764,3.47903l11.88581,22.67062l2.92186,-2.18246l-2.19459,-4.08458l3.90541,-2.91714l3.29397,3.26346l3.21119,-2.39854zM210.85445,149.38313l9.18267,9.09575l-3.06657,2.29049zM199.2129,235.00009c0,-41.85614 33.93105,-75.78719 75.78719,-75.78719c41.85652,0 75.78686,33.93105 75.78686,75.78719c0,41.85652 -33.93035,75.78686 -75.78686,75.78686c-41.85614,0 -75.78719,-33.93035 -75.78719,-75.78686zM328.90546,307.30736l5.43249,-4.18991l-2.20482,-2.85926l-8.57777,6.6154l15.43657,20.01479l8.57777,-6.6154l-2.20577,-2.85926l-5.43249,4.18991l-4.52045,-5.86152l4.31682,-3.32996l-2.20482,-2.85926l-4.31777,3.32996zM220.95835,302.56435l4.65759,3.4796l-11.88575,22.67043l-3.21119,-2.39897l2.19459,-4.08479l-3.90541,-2.91703l-3.29395,3.26366l-2.92186,-2.18209zM214.33244,319.15826l6.11619,-11.38588l-9.18267,9.09583zM323.0553,332.71487c0.48301,1.12798 0.87227,1.94342 1.60721,2.64995l-3.71826,1.593c-0.4546,-0.51237 -0.74346,-0.82112 -1.55417,-2.71246l-1.56364,-3.65197c-0.92436,-2.15746 -1.99551,-2.64143 -3.65481,-1.93016l-1.26152,0.53984l4.05164,9.46045l-3.65197,1.56364l-9.9501,-23.23489l5.51015,-2.36014c3.78361,-1.62047 6.16364,-0.55783 7.69887,3.02689l0.78135,1.82598c1.0238,2.3895 0.92815,4.27705 -0.37126,5.73651c2.15273,-0.01799 3.50328,1.48503 4.54128,3.90768zM234.80837,318.6421c-1.4696,3.61977 -0.14632,6.40042 1.06841,8.95282c1.03081,2.16599 1.98348,4.16813 1.08565,6.37958c-0.67906,1.67256 -1.65958,1.97657 -2.83056,1.50113c-1.17098,-0.47544 -1.66261,-1.37612 -0.98346,-3.04962l0.67916,-1.67256l-3.4795,-1.41305l-0.58407,1.43863c-1.52121,3.74762 -0.51692,6.6495 3.09641,8.11654c3.61333,1.46704 6.35619,0.08618 7.8774,-3.66144c1.4695,-3.61977 0.14632,-6.40042 -1.0685,-8.95282c-1.03071,-2.16599 -1.98348,-4.16813 -1.08565,-6.37958c0.67916,-1.67256 1.60635,-2.03718 2.77733,-1.56175c1.17098,0.47544 1.58201,1.38275 0.90286,3.05625l-0.39389,0.96982l3.4795,1.41305l0.29881,-0.73683c1.52131,-3.74668 0.55045,-6.63529 -3.02945,-8.08812c-3.57989,-1.45378 -6.28923,-0.05967 -7.81044,3.68796zM313.07395,319.58824c-0.71126,-1.66024 -1.58827,-2.14799 -2.88293,-1.59395l-1.75874,0.75293l3.05625,7.13725l1.42726,-0.61182c1.36096,-0.58246 1.9349,-1.53523 1.1384,-3.39436zM264.53658,335.44532l-4.4783,-0.56257l-1.35168,10.74755l-3.94092,-0.49533l3.15399,-25.07887l3.94092,0.49533l-1.35168,10.74849l4.47821,0.56352l1.35168,-10.74849l4.01262,0.5048l-3.15399,25.07887l-4.01252,-0.5048zM289.93244,320.22942l-5.75744,0.80597l-0.50404,25.59219l3.61181,-0.5048l0.04423,-4.63694l4.82768,-0.67527l1.31465,4.44657l3.96915,-0.55499zM287.47731,325.09461l3.66589,12.39358l-3.79062,0.53037z"
                data-paper-data="{&quot;isBaseLogoContainer&quot;:true}" style="animation-play-state: running;"></path>
            </g>
        </g>
    </g>
    <g fill-rule="none" font-family="none" font-weight="none" font-size="none" text-anchor="none" style="mix-blend-mode: normal; animation-play-state: running;" filter="url(#electric-filter)" fill="#ffffff" stroke="none">
        <g data-paper-data="{&quot;isGlobalGroup&quot;:true,&quot;bounds&quot;:{&quot;x&quot;:146,&quot;y&quot;:106,&quot;width&quot;:258,&quot;height&quot;:258}}" style="animation-play-state: running;">
            <g data-paper-data="{&quot;fillRule&quot;:&quot;nonzero&quot;,&quot;fillRuleOriginal&quot;:&quot;evenodd&quot;,&quot;isIcon&quot;:true,&quot;iconStyle&quot;:&quot;standalone&quot;,&quot;selectedEffects&quot;:{&quot;container&quot;:&quot;circle_simple_filled&quot;,&quot;transformation&quot;:&quot;&quot;,&quot;pattern&quot;:&quot;&quot;},&quot;bounds&quot;:{&quot;x&quot;:203.02146804388317,&quot;y&quot;:163.02146804388317,&quot;width&quot;:143.95725332967223,&quot;height&quot;:143.95725332967228},&quot;widthRatioIconToContainer&quot;:0.6771979798685066,&quot;heightRatioIconToContainer&quot;:0.5915523154581329,&quot;relativeBoundsIconToContainer&quot;:{&quot;top&quot;:-0.0017509971090769205,&quot;left&quot;:-1.8671079801891396e-8},&quot;iconType&quot;:&quot;icon&quot;,&quot;rawIconId&quot;:&quot;3584569&quot;,&quot;isDetailed&quot;:false,&quot;blockLetter&quot;:&quot;O&quot;,&quot;suitableAsStandaloneIcon&quot;:true}" fill-rule="nonzero" style="animation-play-state: running;">
                <path d="M203.02147,235.00009c0,-39.75269 32.22593,-71.97863 71.97863,-71.97863c39.75269,0 71.97863,32.22593 71.97863,71.97863c0,39.75269 -32.22593,71.97863 -71.97863,71.97863c-39.75269,0 -71.97863,-32.22593 -71.97863,-71.97863zM323.34291,203.92476v-11.75585l-42.7796,37.04505l-21.90672,-22.53729l-32.40028,28.04224v11.75585l32.40028,-28.04224l21.90672,22.53729zM303.21482,231.622v45.70515h20.52905v-63.42518zM272.47666,277.32715v-34.35026l-13.82006,-14.27929l-6.70898,5.8488v42.78075zM277.46641,277.32715h20.52905v-41.17462l-17.43215,15.08236l-3.09689,-3.15401zM226.25632,277.32715h20.53019v-38.36445l-20.53019,17.72002z" data-paper-data="{&quot;isPathIcon&quot;:true}" style="animation-play-state: running;"></path>
            </g>
            <g data-paper-data="{&quot;isContainerElementsWrapper&quot;:true}" fill-rule="evenodd" style="animation-play-state: running;">
                <path d="M183.78329,143.78329c-11.90078,11.90074 -21.11518,25.56812 -27.6432,41.00215c-6.76006,15.98266 -10.14008,32.72088 -10.14008,50.21466c0,17.49333 3.38003,34.23152 10.14008,50.21456c6.52808,15.43436 15.74248,29.1021 27.6432,41.00319c11.90077,11.89983 25.56815,21.11373 41.00215,27.64169c15.98285,6.76031 32.72107,10.14046 50.21466,10.14046c17.49396,0 34.23215,-3.38015 50.21456,-10.14046c15.43436,-6.52796 29.10178,-15.74185 41.00225,-27.64169c11.90047,-11.9011 21.11468,-25.56883 27.64263,-41.00319c6.76031,-15.98241 10.14046,-32.7206 10.14046,-50.21456c0,-17.49403 -3.38015,-34.23225 -10.14046,-50.21466c-6.52796,-15.43395 -15.74185,-29.10133 -27.64169,-41.00215c-11.9011,-11.90059 -25.56883,-21.11499 -41.00319,-27.6432c-15.98304,-6.76006 -32.72123,-10.14008 -50.21456,-10.14008c-17.49377,0 -34.23199,3.38003 -50.21466,10.14008c-15.43417,6.52815 -29.10156,15.74255 -41.00215,27.6432zM148.45239,235.00009c0,-17.16236 3.3155,-33.5821 9.9465,-49.25924c6.40389,-15.14046 15.44339,-28.54828 27.11852,-40.22346c11.67524,-11.67525 25.08305,-20.71475 40.22346,-27.11852c15.67713,-6.631 32.09688,-9.9465 49.25924,-9.9465c17.16185,0 33.58182,3.3155 49.2599,9.9465c15.14014,6.40376 28.54773,15.44327 40.22279,27.11852c11.67506,11.67537 20.71469,25.08319 27.11889,40.22346c6.63024,15.67751 9.94536,32.09726 9.94536,49.25924c0,17.16248 -3.31512,33.58245 -9.94536,49.2599c-6.4042,15.14014 -15.44384,28.54773 -27.11889,40.22279c-11.67506,11.67506 -25.08266,20.71469 -40.22279,27.11889c-15.67745,6.63024 -32.09742,9.94536 -49.2599,9.94536c-17.16248,0 -33.58223,-3.31512 -49.25924,-9.94536c-15.14069,-6.4042 -28.5485,-15.44384 -40.22346,-27.11889c-11.67506,-11.67506 -20.71456,-25.08266 -27.11852,-40.22279c-6.631,-15.67808 -9.9465,-32.09805 -9.9465,-49.2599z" data-paper-data="{&quot;isAdditionalOutlinePath&quot;:true}" style="animation-play-state: running;"></path>
                <path d="M152.37645,235.00009c0,-67.72318 54.90046,-122.62364 122.62364,-122.62364c67.72336,0 122.62411,54.90046 122.62411,122.62364c0,67.72336 -54.90075,122.62411 -122.62411,122.62411c-67.72318,0 -122.62364,-54.90075 -122.62364,-122.62411zM265.02319,138.42381l-4.4783,0.56323l1.35168,10.74783l-3.94092,0.49565l-3.1539,-25.07843l3.94092,-0.49561l1.35168,10.74792l4.4783,-0.56323l-1.35168,-10.74792l4.01252,-0.50461l3.1539,25.0784l-4.01252,0.5047zM293.39357,125.02414l-5.75744,-0.80521l-7.50633,24.47216l3.61181,0.50518l1.31465,-4.44657l4.82768,0.67518l0.04423,4.63665l3.96943,0.55517zM289.69804,129.02833l0.12464,12.92433l-3.79053,-0.53018zM315.40757,155.14339c-0.48301,1.12855 -0.80597,1.97257 -0.80976,2.99195l-3.71826,-1.59212c0.05683,-0.68276 0.0805,-1.10474 0.89121,-2.99672l1.56364,-3.65119c0.92436,-2.15756 0.5351,-3.26688 -1.12514,-3.97767l-1.26057,-0.54012l-4.05164,9.45986l-3.65102,-1.56369l9.9501,-23.23481l5.51015,2.35967c3.78456,1.62056 4.65683,4.07636 3.1216,7.66118l-0.78135,1.82561c-1.0238,2.38988 -2.45485,3.62299 -4.40869,3.68985c1.49829,1.54527 1.34297,3.56038 0.30496,5.9834zM229.97301,139.44762c2.71644,6.69136 10.27637,4.67444 12.2322,9.49218c0.67916,1.67287 0.18762,2.5739 -0.98336,3.04928c-1.17098,0.47538 -2.1515,0.17197 -2.83065,-1.50086l-0.67916,-1.67287l-3.4795,1.4126l0.58407,1.43863c1.52121,3.74715 4.26407,5.12777 7.8774,3.66087c3.61333,-1.4669 4.61762,-4.36873 3.09641,-8.1159c-2.71644,-6.69127 -10.27637,-4.67444 -12.2322,-9.49218c-0.67916,-1.67284 -0.26812,-2.58015 0.90286,-3.05559c1.17098,-0.47534 2.09818,-0.11128 2.77733,1.56156l0.39389,0.9702l3.4795,-1.41258l-0.29881,-0.73608c-1.52121,-3.74706 -4.23064,-5.14126 -7.81053,-3.68796c-3.5798,1.45331 -4.55066,4.34154 -3.02945,8.08869zM318.02058,138.86118c0.71032,-1.65968 0.45934,-2.63158 -0.83533,-3.186l-1.75874,-0.75341l-3.05625,7.1364l1.42726,0.61134c1.36002,0.58274 2.44633,0.34067 3.24188,-1.51809zM339.75529,148.62565l5.43249,4.18997l2.20482,-2.85925l-8.57777,-6.61566l-15.43657,20.01469l8.57777,6.6157l2.20577,-2.85927l-5.43249,-4.18992l4.52045,-5.86145l4.31777,3.32988l2.20482,-2.85924l-4.31777,-3.32989zM210.66295,143.93757l-4.65764,3.47903l11.88581,22.67062l2.92186,-2.18246l-2.19459,-4.08458l3.90541,-2.91714l3.29397,3.26346l3.21119,-2.39854zM210.85445,149.38313l9.18267,9.09575l-3.06657,2.29049zM199.2129,235.00009c0,-41.85614 33.93105,-75.78719 75.78719,-75.78719c41.85652,0 75.78686,33.93105 75.78686,75.78719c0,41.85652 -33.93035,75.78686 -75.78686,75.78686c-41.85614,0 -75.78719,-33.93035 -75.78719,-75.78686zM328.90546,307.30736l5.43249,-4.18991l-2.20482,-2.85926l-8.57777,6.6154l15.43657,20.01479l8.57777,-6.6154l-2.20577,-2.85926l-5.43249,4.18991l-4.52045,-5.86152l4.31682,-3.32996l-2.20482,-2.85926l-4.31777,3.32996zM220.95835,302.56435l4.65759,3.4796l-11.88575,22.67043l-3.21119,-2.39897l2.19459,-4.08479l-3.90541,-2.91703l-3.29395,3.26366l-2.92186,-2.18209zM214.33244,319.15826l6.11619,-11.38588l-9.18267,9.09583zM323.0553,332.71487c0.48301,1.12798 0.87227,1.94342 1.60721,2.64995l-3.71826,1.593c-0.4546,-0.51237 -0.74346,-0.82112 -1.55417,-2.71246l-1.56364,-3.65197c-0.92436,-2.15746 -1.99551,-2.64143 -3.65481,-1.93016l-1.26152,0.53984l4.05164,9.46045l-3.65197,1.56364l-9.9501,-23.23489l5.51015,-2.36014c3.78361,-1.62047 6.16364,-0.55783 7.69887,3.02689l0.78135,1.82598c1.0238,2.3895 0.92815,4.27705 -0.37126,5.73651c2.15273,-0.01799 3.50328,1.48503 4.54128,3.90768zM234.80837,318.6421c-1.4696,3.61977 -0.14632,6.40042 1.06841,8.95282c1.03081,2.16599 1.98348,4.16813 1.08565,6.37958c-0.67906,1.67256 -1.65958,1.97657 -2.83056,1.50113c-1.17098,-0.47544 -1.66261,-1.37612 -0.98346,-3.04962l0.67916,-1.67256l-3.4795,-1.41305l-0.58407,1.43863c-1.52121,3.74762 -0.51692,6.6495 3.09641,8.11654c3.61333,1.46704 6.35619,0.08618 7.8774,-3.66144c1.4695,-3.61977 0.14632,-6.40042 -1.0685,-8.95282c-1.03071,-2.16599 -1.98348,-4.16813 -1.08565,-6.37958c0.67916,-1.67256 1.60635,-2.03718 2.77733,-1.56175c1.17098,0.47544 1.58201,1.38275 0.90286,3.05625l-0.39389,0.96982l3.4795,1.41305l0.29881,-0.73683c1.52131,-3.74668 0.55045,-6.63529 -3.02945,-8.08812c-3.57989,-1.45378 -6.28923,-0.05967 -7.81044,3.68796zM313.07395,319.58824c-0.71126,-1.66024 -1.58827,-2.14799 -2.88293,-1.59395l-1.75874,0.75293l3.05625,7.13725l1.42726,-0.61182c1.36096,-0.58246 1.9349,-1.53523 1.1384,-3.39436zM264.53658,335.44532l-4.4783,-0.56257l-1.35168,10.74755l-3.94092,-0.49533l3.15399,-25.07887l3.94092,0.49533l-1.35168,10.74849l4.47821,0.56352l1.35168,-10.74849l4.01262,0.5048l-3.15399,25.07887l-4.01252,-0.5048zM289.93244,320.22942l-5.75744,0.80597l-0.50404,25.59219l3.61181,-0.5048l0.04423,-4.63694l4.82768,-0.67527l1.31465,4.44657l3.96915,-0.55499zM287.47731,325.09461l3.66589,12.39358l-3.79062,0.53037z"
                data-paper-data="{&quot;isBaseLogoContainer&quot;:true}" style="animation-play-state: running;"></path>
            </g>
        </g>
    </g>
</svg>
